<svg xmlns="http://www.w3.org/2000/svg" width="42" height="50" fill="none" viewBox="0 0 42 50"><path fill="#020204" d="M20.796 0c-1.167 0-2.337.23-3.395.805a6.26 6.26 0 0 0-2.612 2.728c-.567 1.149-.789 2.375-.824 3.727-.064 2.566.058 5.258.25 7.697.051.742.145 1.176.05 1.94-.316 1.62-1.727 2.71-2.482 4.134-.83 1.57-1.18 3.346-1.806 5.01-.574 1.521-1.379 2.95-1.921 4.482-.76 2.143-.988 4.499-.486 6.717.383 1.692 1.182 3.278 2.26 4.635-.156.281-.308.568-.467.848-.5.865-1.11 1.687-1.395 2.646-.142.479-.198.99-.107 1.483.092.492.34.963.73 1.275.254.203.563.336.88.41.317.072.646.09.973.084 1.238-.027 2.44-.404 3.638-.72a43 43 0 0 1 2.144-.505c2.555-.525 5.406-.314 7.776.03q1.205.184 2.39.474c1.237.301 2.467.684 3.74.721.334.01.672-.006.999-.078a2.2 2.2 0 0 0 .904-.416c.39-.312.64-.785.73-1.277.092-.493.036-1.006-.108-1.487-.288-.96-.904-1.779-1.414-2.64-.202-.342-.389-.69-.589-1.032 1.536-1.732 2.773-3.736 3.488-5.937.78-2.402.924-4.99.595-7.496-.328-2.506-1.12-4.936-2.16-7.236-1.306-2.883-2.405-3.926-3.202-6.46-.86-2.738-.15-5.978-.79-8.46a8.7 8.7 0 0 0-1.06-2.39 8.2 8.2 0 0 0-2.07-2.24C24.136.513 22.48 0 20.795 0"/><path fill="#fdfdfb" d="M16.164 14.453c-.175.22-.288.487-.358.76a4.2 4.2 0 0 0-.105.84c-.021.564.014 1.138-.136 1.683-.16.582-.515 1.088-.863 1.578-.605.852-1.215 1.727-1.513 2.729a4.9 4.9 0 0 0-.177 1.879 20 20 0 0 0-1.746 3.16c-.735 1.674-1.239 3.455-1.415 5.275-.218 2.229.066 4.522.943 6.58.632 1.49 1.577 2.852 2.796 3.915a9.6 9.6 0 0 0 2.041 1.36c2.55 1.26 5.7 1.263 8.206-.08 1.31-.7 2.417-1.726 3.482-2.763.642-.625 1.282-1.266 1.772-2.016.943-1.447 1.271-3.205 1.476-4.921.355-3 .367-6.172-.943-8.893a9.8 9.8 0 0 0-1.774-2.549 14 14 0 0 0-1.12-3.793c-.398-.869-.883-1.695-1.252-2.574-.152-.361-.284-.732-.451-1.086-.17-.353-.375-.693-.66-.965a2.7 2.7 0 0 0-1.026-.6 4.4 4.4 0 0 0-1.178-.202c-.8-.041-1.599.064-2.398.03-.636-.025-1.27-.136-1.905-.099-.317.02-.634.076-.93.197a1.86 1.86 0 0 0-.766.555"/><path fill="#020204" d="M12.44 19.709c-1.186 1.352-2.405 2.662-3.074 4.125-.332.742-.488 1.549-.715 2.33a17.6 17.6 0 0 1-1 2.582c-.363.772-.764 1.526-1.162 2.277-.292.55-.588 1.108-.689 1.721-.08.484-.035.984.09 1.46.122.474.319.927.542 1.362.95 1.866 2.374 3.471 4.062 4.702a14.4 14.4 0 0 0 2.446 1.435c.467.213.957.404 1.47.412.257.006.516-.037.75-.14s.444-.27.584-.487c.171-.265.23-.595.195-.91a2.2 2.2 0 0 0-.321-.885c-.4-.66-1.033-1.138-1.641-1.611a55 55 0 0 1-3.802-3.238c-.342-.322-.686-.653-.925-1.059-.234-.394-.36-.844-.446-1.295-.235-1.236-.175-2.537.243-3.724.166-.465.382-.909.592-1.354.361-.771.704-1.558 1.18-2.265.593-.881 1.386-1.627 1.868-2.573.409-.799.574-1.695.732-2.578.124-.691.36-1.367.48-2.058-.235.449-.994 1.185-1.458 1.771"/><path fill="#ebc80d" d="M6.802 34.244c.268-.111.57-.133.853-.08.286.053.556.178.796.34.48.328.836.805 1.176 1.277a45 45 0 0 1 2.22 3.336c.555.934 1.062 1.897 1.704 2.77.418.572.888 1.101 1.308 1.67.42.57.792 1.187.979 1.87a3.77 3.77 0 0 1-.273 2.686 3.53 3.53 0 0 1-1.303 1.405 3.33 3.33 0 0 1-1.779.482c-1.024 0-2.026-.553-2.979-.934-1.94-.777-4.048-1.02-6.049-1.625-.614-.185-1.219-.406-1.837-.576-.276-.076-.554-.142-.815-.262-.26-.117-.504-.294-.647-.54A1.27 1.27 0 0 1 0 45.426c0-.223.054-.442.13-.649.15-.416.393-.793.556-1.205.267-.672.315-1.412.278-2.135-.035-.72-.151-1.437-.2-2.158-.023-.322-.03-.648.031-.967.06-.316.197-.626.428-.85.214-.206.496-.33.788-.39.29-.06.589-.062.884-.056s.593.023.889-.002a2 2 0 0 0 .85-.239c.245-.14.445-.35.61-.578s.3-.478.438-.726a4.6 4.6 0 0 1 .459-.711c.178-.219.4-.408.66-.516M41.508 43.54c-.44.523-1.05.868-1.659 1.18-1.036.53-2.111.997-3.085 1.636-.654.427-1.257.93-1.82 1.47-.483.463-.94.957-1.48 1.35-.547.396-1.176.683-1.843.783q-.277.04-.557.041c-.63 0-1.26-.152-1.839-.406-.525-.229-1.03-.559-1.334-1.047-.303-.492-.373-1.092-.373-1.672-.002-1.022.186-2.033.363-3.041.148-.838.288-1.676.38-2.522.165-1.535.163-3.087.054-4.63-.02-.258-.04-.518-.002-.774.039-.256.144-.511.338-.68.181-.156.422-.226.662-.238.237-.013.474.024.71.059.553.082 1.113.144 1.656.289.342.09.677.21 1.017.305.572.154 1.168.228 1.754.16.632-.075 1.246-.313 1.882-.297.26.006.52.054.768.135.253.08.504.195.69.386.142.145.241.326.315.516.111.281.171.582.197.883.021.267.017.539.068.802.083.432.31.829.59 1.166.283.34.62.628.956.91.336.284.672.565 1.034.813.17.117.344.227.506.354.16.129.309.277.41.457a1.07 1.07 0 0 1 .09.822c-.088.28-.25.55-.448.79"/><path fill="#020204" d="M36.857 34.906a1.24 1.24 0 0 0-.334-.482 1.8 1.8 0 0 0-.5-.313c-.362-.154-.757-.213-1.146-.285-.363-.068-.727-.152-1.092-.215-.381-.064-.774-.107-1.151-.021a1.96 1.96 0 0 0-.883.474 2.5 2.5 0 0 0-.584.823c-.246.545-.324 1.156-.278 1.752.035.443.148.9.438 1.234.235.272.568.442.91.543a3.08 3.08 0 0 0 1.82-.025 4.8 4.8 0 0 0 2.401-1.815c.19-.28.354-.582.428-.91.056-.25.058-.52-.03-.76"/><path fill="#020204" d="M31.648 24.828c1.019.824 1.666 2.069 1.866 3.367.156 1.012.055 2.053-.173 3.051-.227 1-.577 1.965-.927 2.93-.138.383-.278.771-.333 1.176-.056.406-.021.834.173 1.193.224.412.64.695 1.087.828.442.133.918.129 1.365.018.448-.112 1.2-.256 1.564-.541.923-.721 1.143-1.973 1.363-3.07.227-1.147.116-2.348-.084-3.507-.274-1.58-.735-3.123-1.32-4.613a16 16 0 0 0-1.641-3.117c-.646-.955-1.56-1.7-2.236-2.633-.236-.324-.518-.66-.747-.988-.498-.707-.385-.574-.694-1.033-.224-.332-.578-.446-.95-.59a1.88 1.88 0 0 0-1.173-.08c-.506.142-.92.545-1.14 1.023-.22.48-.259 1.031-.173 1.553.11.672.416 1.297.762 1.883.39.662.84 1.3 1.43 1.793.614.513 1.357.853 1.98 1.357"/><path fill="#fff" fill-rule="evenodd" d="M16.421 7.477c.224-.012.45.045.652.144.2.1.378.24.534.403.323.334.554.752.7 1.193.144.441.204.908.212 1.373.006.373-.024.748-.127 1.106-.103.357-.28.697-.544.957a1.66 1.66 0 0 1-.645.394 1.4 1.4 0 0 1-.751.025 1.47 1.47 0 0 1-.69-.408 2.1 2.1 0 0 1-.433-.685c-.202-.504-.242-1.057-.28-1.598-.043-.6-.087-1.217.102-1.787a1.8 1.8 0 0 1 .469-.758 1.3 1.3 0 0 1 .801-.36m.248 1.584a.7.7 0 0 0-.459.037.8.8 0 0 0-.359.363c-.08.154-.12.326-.15.498-.062.38-.063.776.065 1.135.086.238.227.455.399.64.11.122.239.231.386.303.15.073.321.102.483.063a.7.7 0 0 0 .37-.252 1.2 1.2 0 0 0 .205-.408 2.26 2.26 0 0 0-.022-1.334c-.095-.315-.257-.617-.506-.828a1 1 0 0 0-.412-.217M23.07 7.123c.306.043.6.158.856.326.517.336.883.875 1.085 1.46.187.536.241 1.114.21 1.68-.025.448-.104.895-.291 1.302-.187.404-.488.765-.88.972-.326.168-.7.229-1.064.186a2.24 2.24 0 0 1-1.01-.395c-.6-.416-1-1.076-1.236-1.77-.234-.675-.326-1.429-.084-2.103.19-.535.582-.982 1.046-1.304.146-.1.297-.188.46-.252.288-.112.603-.145.909-.102m-.292 1.768a1.1 1.1 0 0 0-.496.166c-.148.093-.274.22-.374.367-.2.29-.288.646-.301 1-.01.264.02.531.107.781.088.25.234.483.438.65.208.174.47.278.74.291s.543-.066.765-.22c.176-.123.318-.293.42-.485.1-.189.163-.4.19-.615a1.9 1.9 0 0 0-.18-1.111c-.174-.34-.47-.62-.826-.75a1.2 1.2 0 0 0-.483-.074" clip-rule="evenodd"/><path fill="#ebc80d" d="M15 14.658q.016.076.054.143c.045.074.11.134.18.185.07.053.147.096.22.141.391.248.71.594.994.96.38.493.716 1.038 1.223 1.395.358.254.786.397 1.221.442.512.05 1.029-.031 1.523-.178a5.3 5.3 0 0 0 1.303-.576c.771-.477 1.415-1.176 2.265-1.49.184-.069.377-.117.556-.201.179-.086.348-.211.433-.391.082-.172.078-.371.105-.56.03-.202.094-.397.129-.598s.039-.416-.047-.602a.78.78 0 0 0-.352-.35 1.2 1.2 0 0 0-.488-.12c-.334-.016-.667.07-1.003.101-.444.041-.89-.018-1.336-.004-.554.018-1.1.143-1.655.17-.632.03-1.262-.068-1.894-.094a4 4 0 0 0-.82.04 1.9 1.9 0 0 0-.76.294c-.22.153-.395.36-.597.535a1.5 1.5 0 0 1-.33.227.8.8 0 0 1-.386.092c-.068-.002-.14-.012-.204.008a.3.3 0 0 0-.109.068.7.7 0 0 0-.08.101q-.084.124-.146.262"/><path fill="#ebc80d" d="M16.322 12.49a4 4 0 0 0-.862.79c-.14.173-.268.363-.338.574-.056.168-.076.343-.11.517-.014.064-.03.129-.028.195q0 .048.014.098.016.047.048.084c.039.04.091.06.144.072.054.01.109.012.163.018.243.03.467.146.67.287.201.139.388.303.596.434.457.29 1.003.42 1.546.441.54.021 1.081-.06 1.614-.168a7 7 0 0 0 1.242-.344c.615-.244 1.169-.617 1.696-1.013.241-.18.478-.366.694-.575q.106-.11.222-.21a.8.8 0 0 1 .262-.153 1 1 0 0 1 .461-.008c.115.02.23.045.346.041a.6.6 0 0 0 .171-.035.34.34 0 0 0 .142-.101.34.34 0 0 0 .074-.213.44.44 0 0 0-.062-.221.75.75 0 0 0-.352-.285c-.192-.086-.4-.127-.605-.178a8.6 8.6 0 0 1-1.816-.666c-.288-.143-.568-.3-.85-.453a5 5 0 0 0-.902-.404c-.708-.215-1.478-.145-2.176.1-.774.269-1.474.75-2.004 1.376"/></svg>